<svg xmlns="http://www.w3.org/2000/svg" width="760" height="476" viewBox="0 0 760 476" font-family="-apple-system, BlinkMacSystemFont, 'Segoe UI', Helvetica, Arial, sans-serif" role="img">
  <title>Candidates are judged, not trusted</title>
  <rect x="0.5" y="0.5" width="759" height="475" rx="10" fill="#ffffff" stroke="#d0d7de"/>
  <text x="24" y="36" font-size="18" fill="#24292f" font-weight="600">Candidates are judged, not trusted</text>
  <text x="24" y="58" font-size="12.5" fill="#57606a">The system proposes a composition from train-split episodes; the laboratory runs it on held-out targets</text>
  <text x="541.1" y="88" font-size="12" fill="#24292f">the strategy that proposed it</text>
  <rect x="523.1" y="78" width="12" height="12" rx="2" fill="#8c959f"/>
  <text x="451.4" y="88" font-size="12" fill="#24292f">rejected</text>
  <rect x="433.4" y="78" width="12" height="12" rx="2" fill="#D55E00"/>
  <text x="361.6" y="88" font-size="12" fill="#24292f">promoted</text>
  <rect x="343.6" y="78" width="12" height="12" rx="2" fill="#009E73"/>
  <text x="24" y="132" font-size="12.5" fill="#24292f" font-weight="600">from exhaustive</text>
  <text x="24" y="149" font-size="11" fill="#57606a">probe-next-unobserved → observations-to-partial-table →</text>
  <text x="24" y="163" font-size="11" fill="#57606a">complete-table-by-default → commit-truth-table</text>
  <rect x="420" y="124" width="200" height="16" rx="2" fill="#009E73"/>
  <text x="626" y="137" font-size="12" fill="#24292f" font-weight="600">100%</text>
  <rect x="420" y="146" width="200" height="8" rx="2" fill="#8c959f"/>
  <text x="626" y="154" font-size="11" fill="#57606a">100%</text>
  <text x="736" y="137" font-size="12" fill="#009E73" text-anchor="end" font-weight="600">promoted</text>
  <line x1="24" y1="176" x2="736" y2="176" stroke="#d8dee4" stroke-width="1"/>
  <text x="24" y="196" font-size="12.5" fill="#24292f" font-weight="600">from greedy-pool</text>
  <text x="24" y="213" font-size="11" fill="#57606a">greedy-split-probe → version-space-filter →</text>
  <text x="24" y="227" font-size="11" fill="#57606a">single-survivor-to-table → commit-truth-table</text>
  <rect x="420" y="188" width="200" height="16" rx="2" fill="#009E73"/>
  <text x="626" y="201" font-size="12" fill="#24292f" font-weight="600">100%</text>
  <rect x="420" y="210" width="200" height="8" rx="2" fill="#8c959f"/>
  <text x="626" y="218" font-size="11" fill="#57606a">100%</text>
  <text x="736" y="201" font-size="12" fill="#009E73" text-anchor="end" font-weight="600">promoted</text>
  <line x1="24" y1="240" x2="736" y2="240" stroke="#d8dee4" stroke-width="1"/>
  <text x="24" y="260" font-size="12.5" fill="#24292f" font-weight="600">from affine-blind</text>
  <text x="24" y="277" font-size="11" fill="#57606a">affine-probe → affine-solve → commit-truth-table</text>
  <rect x="420" y="252" width="60" height="16" rx="2" fill="#D55E00"/>
  <text x="486" y="265" font-size="12" fill="#24292f" font-weight="600">30%</text>
  <rect x="420" y="274" width="60" height="8" rx="2" fill="#8c959f"/>
  <text x="486" y="282" font-size="11" fill="#57606a">30%</text>
  <text x="736" y="265" font-size="12" fill="#D55E00" text-anchor="end" font-weight="600">rejected</text>
  <line x1="24" y1="304" x2="736" y2="304" stroke="#d8dee4" stroke-width="1"/>
  <text x="24" y="324" font-size="12.5" fill="#24292f" font-weight="600">from affine-verified-then-greedy</text>
  <text x="24" y="341" font-size="11" fill="#57606a">greedy-split-probe → version-space-filter →</text>
  <text x="24" y="355" font-size="11" fill="#57606a">single-survivor-to-table → commit-truth-table</text>
  <rect x="420" y="316" width="200" height="16" rx="2" fill="#009E73"/>
  <text x="626" y="329" font-size="12" fill="#24292f" font-weight="600">100%</text>
  <rect x="420" y="338" width="160" height="8" rx="2" fill="#8c959f"/>
  <text x="586" y="346" font-size="11" fill="#57606a">80%</text>
  <text x="736" y="329" font-size="12" fill="#009E73" text-anchor="end" font-weight="600">promoted</text>
  <line x1="24" y1="368" x2="736" y2="368" stroke="#d8dee4" stroke-width="1"/>
  <text x="24" y="388" font-size="12.5" fill="#24292f" font-weight="600">from affine-verified-then-greedy</text>
  <text x="24" y="405" font-size="11" fill="#57606a">greedy-split-probe → affine-solve → commit-truth-table</text>
  <rect x="420" y="380" width="60" height="16" rx="2" fill="#D55E00"/>
  <text x="486" y="393" font-size="12" fill="#24292f" font-weight="600">30%</text>
  <rect x="420" y="402" width="160" height="8" rx="2" fill="#8c959f"/>
  <text x="586" y="410" font-size="11" fill="#57606a">80%</text>
  <text x="736" y="393" font-size="12" fill="#D55E00" text-anchor="end" font-weight="600">rejected</text>
  <text x="420" y="108" font-size="11" fill="#57606a">held-out tasks solved</text>
  <text x="24" y="458" font-size="12.5" fill="#24292f">3 of 5 candidates promoted; 1 solves more held-out targets than the strategy it came from.</text>
</svg>
